REM DIRINDEX 1\2,1\3,1\4,1\5
REM DIRNAME cjc046,folder01,folder02,folder03,folder04
TITLE ""
FILE "152.mp3" MP3
  TRACK 01 AUDIO
    TITLE "0:"
    INDEX 01 00:00:00
  TRACK 02 AUDIO
    TITLE "2:cjc046_4252"
    INDEX 01 00:00:13
  TRACK 03 AUDIO
    TITLE "0:"
    INDEX 01 00:01:24
  TRACK 04 AUDIO
    TITLE "3:cjc046_4253"
    INDEX 01 00:01:40
  TRACK 05 AUDIO
    TITLE "0:"
    INDEX 01 00:02:51
  TRACK 06 AUDIO
    TITLE "4:cjc046_4254"
    INDEX 01 00:02:71
  TRACK 07 AUDIO
    TITLE "0:"
    INDEX 01 00:04:07
  TRACK 08 AUDIO
    TITLE "2:cjc046_4255"
    INDEX 01 00:05:12
  TRACK 09 AUDIO
    TITLE "0:"
    INDEX 01 00:06:24
  TRACK 10 AUDIO
    TITLE "3:cjc046_4256"
    INDEX 01 00:06:43
  TRACK 11 AUDIO
    TITLE "0:"
    INDEX 01 00:07:54
  TRACK 12 AUDIO
    TITLE "4:cjc046_4257"
    INDEX 01 00:07:68
  TRACK 13 AUDIO
    TITLE "0:"
    INDEX 01 00:09:04
  TRACK 14 AUDIO
    TITLE "2:cjc046_4258"
    INDEX 01 00:10:12
  TRACK 15 AUDIO
    TITLE "0:"
    INDEX 01 00:11:21
  TRACK 16 AUDIO
    TITLE "3:cjc046_4259"
    INDEX 01 00:11:40
  TRACK 17 AUDIO
    TITLE "0:"
    INDEX 01 00:12:58
  TRACK 18 AUDIO
    TITLE "4:cjc046_4260"
    INDEX 01 00:12:73
  TRACK 19 AUDIO
    TITLE "0:"
    INDEX 01 00:14:06
  TRACK 20 AUDIO
    TITLE "2:cjc046_4261"
    INDEX 01 00:15:13
  TRACK 21 AUDIO
    TITLE "0:"
    INDEX 01 00:16:36
  TRACK 22 AUDIO
    TITLE "3:cjc046_4262"
    INDEX 01 00:16:51
  TRACK 23 AUDIO
    TITLE "0:"
    INDEX 01 00:17:61
  TRACK 24 AUDIO
    TITLE "4:cjc046_4263"
    INDEX 01 00:17:72
  TRACK 25 AUDIO
    TITLE "0:"
    INDEX 01 00:19:18
  TRACK 26 AUDIO
    TITLE "2:cjc046_4264"
    INDEX 01 00:20:24
  TRACK 27 AUDIO
    TITLE "0:"
    INDEX 01 00:21:33
  TRACK 28 AUDIO
    TITLE "3:cjc046_4265"
    INDEX 01 00:21:47
  TRACK 29 AUDIO
    TITLE "0:"
    INDEX 01 00:23:01
  TRACK 30 AUDIO
    TITLE "4:cjc046_4266"
    INDEX 01 00:23:16
  TRACK 31 AUDIO
    TITLE "0:"
    INDEX 01 00:24:27
  TRACK 32 AUDIO
    TITLE "2:cjc046_4267"
    INDEX 01 00:25:33
  TRACK 33 AUDIO
    TITLE "0:"
    INDEX 01 00:26:48
  TRACK 34 AUDIO
    TITLE "3:cjc046_4268"
    INDEX 01 00:26:64
  TRACK 35 AUDIO
    TITLE "0:"
    INDEX 01 00:28:70
  TRACK 36 AUDIO
    TITLE "4:cjc046_4269"
    INDEX 01 00:29:11
  TRACK 37 AUDIO
    TITLE "0:"
    INDEX 01 00:30:28
  TRACK 38 AUDIO
    TITLE "2:cjc046_4270"
    INDEX 01 00:31:31
  TRACK 39 AUDIO
    TITLE "0:"
    INDEX 01 00:33:40
  TRACK 40 AUDIO
    TITLE "3:cjc046_4271"
    INDEX 01 00:33:62
  TRACK 41 AUDIO
    TITLE "0:"
    INDEX 01 00:36:09
  TRACK 42 AUDIO
    TITLE "4:cjc046_4272"
    INDEX 01 00:36:27
  TRACK 43 AUDIO
    TITLE "0:"
    INDEX 01 00:38:33
  TRACK 44 AUDIO
    TITLE "2:cjc046_4273"
    INDEX 01 00:39:43
  TRACK 45 AUDIO
    TITLE "0:"
    INDEX 01 00:41:06
  TRACK 46 AUDIO
    TITLE "3:cjc046_4274"
    INDEX 01 00:41:24
  TRACK 47 AUDIO
    TITLE "0:"
    INDEX 01 00:42:33
  TRACK 48 AUDIO
    TITLE "4:cjc046_4275"
    INDEX 01 00:42:55
  TRACK 49 AUDIO
    TITLE "0:"
    INDEX 01 00:44:18
  TRACK 50 AUDIO
    TITLE "2:cjc046_4276"
    INDEX 01 00:45:28
  TRACK 51 AUDIO
    TITLE "0:"
    INDEX 01 00:46:33
  TRACK 52 AUDIO
    TITLE "3:cjc046_4277"
    INDEX 01 00:46:54
  TRACK 53 AUDIO
    TITLE "0:"
    INDEX 01 00:47:74
  TRACK 54 AUDIO
    TITLE "4:cjc046_4278"
    INDEX 01 00:48:12
  TRACK 55 AUDIO
    TITLE "0:"
    INDEX 01 00:49:18
  TRACK 56 AUDIO
    TITLE "2:cjc046_4279"
    INDEX 01 00:50:25
  TRACK 57 AUDIO
    TITLE "0:"
    INDEX 01 00:51:30
  TRACK 58 AUDIO
    TITLE "3:cjc046_4280"
    INDEX 01 00:51:48
  TRACK 59 AUDIO
    TITLE "0:"
    INDEX 01 00:53:21
  TRACK 60 AUDIO
    TITLE "4:cjc046_4281"
    INDEX 01 00:53:35
  TRACK 61 AUDIO
    TITLE "0:"
    INDEX 01 00:54:42
  TRACK 62 AUDIO
    TITLE "2:cjc046_4282"
    INDEX 01 00:55:50
  TRACK 63 AUDIO
    TITLE "0:"
    INDEX 01 00:56:57
  TRACK 64 AUDIO
    TITLE "3:cjc046_4283"
    INDEX 01 00:57:01
  TRACK 65 AUDIO
    TITLE "0:"
    INDEX 01 00:58:36
  TRACK 66 AUDIO
    TITLE "4:cjc046_4284"
    INDEX 01 00:58:52
  TRACK 67 AUDIO
    TITLE "0:"
    INDEX 01 00:59:57
  TRACK 68 AUDIO
    TITLE "2:cjc046_4285"
    INDEX 01 01:00:68
  TRACK 69 AUDIO
    TITLE "0:"
    INDEX 01 01:02:03
  TRACK 70 AUDIO
    TITLE "3:cjc046_4286"
    INDEX 01 01:02:20
  TRACK 71 AUDIO
    TITLE "0:"
    INDEX 01 01:03:22
  TRACK 72 AUDIO
    TITLE "4:cjc046_4287"
    INDEX 01 01:03:33
  TRACK 73 AUDIO
    TITLE "0:"
    INDEX 01 01:04:43
  TRACK 74 AUDIO
    TITLE "2:cjc046_4288"
    INDEX 01 01:05:50
  TRACK 75 AUDIO
    TITLE "0:"
    INDEX 01 01:06:63
  TRACK 76 AUDIO
    TITLE "3:cjc046_4289"
    INDEX 01 01:07:06
  TRACK 77 AUDIO
    TITLE "0:"
    INDEX 01 01:08:66
  TRACK 78 AUDIO
    TITLE "4:cjc046_4290"
    INDEX 01 01:09:03
  TRACK 79 AUDIO
    TITLE "0:"
    INDEX 01 01:10:18
  TRACK 80 AUDIO
    TITLE "2:cjc046_4291"
    INDEX 01 01:11:21
  TRACK 81 AUDIO
    TITLE "0:"
    INDEX 01 01:12:26
  TRACK 82 AUDIO
    TITLE "3:cjc046_4292"
    INDEX 01 01:12:44
  TRACK 83 AUDIO
    TITLE "0:"
    INDEX 01 01:13:47
  TRACK 84 AUDIO
    TITLE "4:cjc046_4293"
    INDEX 01 01:13:67
  TRACK 85 AUDIO
    TITLE "0:"
    INDEX 01 01:14:72
  TRACK 86 AUDIO
    TITLE "2:cjc046_4294"
    INDEX 01 01:16:07
  TRACK 87 AUDIO
    TITLE "0:"
    INDEX 01 01:17:18
  TRACK 88 AUDIO
    TITLE "3:cjc046_4295"
    INDEX 01 01:17:32
  TRACK 89 AUDIO
    TITLE "0:"
    INDEX 01 01:18:51
  TRACK 90 AUDIO
    TITLE "4:cjc046_4296"
    INDEX 01 01:18:62
  TRACK 91 AUDIO
    TITLE "0:"
    INDEX 01 01:20:00
  TRACK 92 AUDIO
    TITLE "2:cjc046_4297"
    INDEX 01 01:21:10
  TRACK 93 AUDIO
    TITLE "0:"
    INDEX 01 01:22:21
  TRACK 94 AUDIO
    TITLE "3:cjc046_4298"
    INDEX 01 01:22:39
  TRACK 95 AUDIO
    TITLE "0:"
    INDEX 01 01:23:54
  TRACK 96 AUDIO
    TITLE "4:cjc046_4299"
    INDEX 01 01:23:69
  TRACK 97 AUDIO
    TITLE "0:"
    INDEX 01 01:25:08
  TRACK 98 AUDIO
    TITLE "2:cjc046_4300"
    INDEX 01 01:26:17
  TRACK 99 AUDIO
    TITLE "0:"
    INDEX 01 01:27:34
  TRACK 100 AUDIO
    TITLE "3:cjc046_4301"
    INDEX 01 01:27:53
  TRACK 101 AUDIO
    TITLE "0:"
    INDEX 01 01:29:33
  TRACK 102 AUDIO
    TITLE "4:cjc046_4302"
    INDEX 01 01:29:46
  TRACK 103 AUDIO
    TITLE "0:"
    INDEX 01 01:30:64
